<svg xmlns="http://www.w3.org/2000/svg" width="60" height="80" stroke="none" stroke-linecap="round" stroke-linejoin="round" fill="#fff" fill-rule="evenodd"><path d="M60 15H0l5 57.5L30 80l25-7.5L60 15" fill="#1572b6"/><path d="M51.7391 52.5l.4348-5 .6522-7.4999.6522-7.5002L54.1304 25l.4348-5H30v55l15.1786-4.5536 5.1339-1.5401.6696-7.7009.6697-7.7009z" fill="#33a9dc"/><path d="M24.9331 65.9799l-2.5669-.7701-8.2143-2.4644-.6697-7.7008L13.261 52.5h8l.4355 5.0088 2.567.7701 5.7366 1.721v7.5002zm-13.4114-33.48h8 2.5H30V25h-8.6304-2.5-8z" fill="#ebebeb"/><path d="M30 59.9999l8.3036-2.4911.4355-5.0088.4348-5H30v-7.4999h9.8261l.6522-7.5002H30V25h11.1304 8l-.6521 7.4999-.6522 7.5002-.6522 7.4999-.4348 5-.2212 2.5446-.6697 7.7008-8.2143 2.4644L30 67.5v-7.5001z"/><path d="M30.0001 47.4999h-6.6739L22.674 40h7.3261z" fill="#ebebeb"/></svg>