<svg xmlns="http://www.w3.org/2000/svg" width="60" height="80" stroke="none" stroke-linecap="round" stroke-linejoin="round" fill="#fff" fill-rule="evenodd"><path d="M60 15H0l5 57.5L30 80l25-7.5L60 15" fill="#e44d26"/><path d="M22.3661 65.2098l-8.2143-2.4643-.6697-7.7009-.2212-2.5446h8l.4355 5.0089L30 60v7.5zM30 32.5H19.5217l.6522 7.5H30v7.5h-9.1739-8l-.6522-7.5-.6522-7.5-.6521-7.5h8H30z" fill="#ebebeb"/><path d="M51.7391 52.5l.4348-5 .6522-7.5.6522-7.5.6521-7.5.4348-5H30v55l15.1786-4.5536 5.1339-1.5401.6696-7.7009.6697-7.7009z" fill="#f16529"/><path d="M30 32.5h10.4783 8l.6521-7.5h-8H30zm9.1739 15H30V40h9.8261 8l-.6522 7.5-.4348 5-.2212 2.5446-.6697 7.7009-8.2143 2.4643L30 67.5V60l8.3036-2.4911.4355-5.0089z"/></svg>